#!OML:ASF H:\ManfredETheater\Project 1\Capture day 1\Session 1\subject.ASF
:FULLY-SPECIFIED
:DEGREES
170
root 1.47069 17.0937 33.6474 -170.701 -4.79128 178.396
lowerback 3.67947 -0.895399 -1.7519
upperback -1.79034 -1.25185 1.5922
thorax -3.83749 -0.565916 2.71415
lowerneck -18.9812 -1.04137 -2.4806
upperneck 22.5373 -1.38177 0.706974
head 10.378 -0.953072 0.432501
rclavicle 1.40143e-014 9.14409e-015
rhumerus -34.7315 -4.58372 -82.6164
rradius 31.6563
rwrist 1.32126
rhand -18.7122 -11.8469
rfingers 7.12502
rthumb 7.58293 -41.6909
lclavicle 1.40143e-014 9.14409e-015
lhumerus -32.0213 1.51646 91.0615
lradius 30.3851
lwrist -14.3705
lhand -10.9813 9.45701
lfingers 7.12502
lthumb 15.0385 38.8908
rfemur -16.3343 -1.24516 15.227
rtibia 34.4702
rfoot -23.3171 -13.2236
rtoes 3.48276
lfemur -19.6805 -4.88036 -19.8089
ltibia 37.0696
lfoot -23.4348 2.81332
ltoes 2.00063
171
root 1.46074 17.0917 33.6274 -170.485 -4.83275 178.403
lowerback 3.75606 -0.896164 -1.70175
upperback -1.7732 -1.25045 1.60665
thorax -3.86381 -0.566032 2.70225
lowerneck -18.9608 -1.05953 -2.51784
upperneck 22.4524 -1.38731 0.699112
head 10.3438 -0.956771 0.435838
rclavicle -4.67144e-015 -1.15295e-014
rhumerus -34.7364 -4.4151 -82.6711
rradius 31.8559
rwrist 1.18855
rhand -18.7089 -11.846
rfingers 7.12502
rthumb 7.58615 -41.6899
lclavicle -4.67144e-015 -1.15295e-014
lhumerus -32.0248 1.41548 91.1172
lradius 30.5245
lwrist -14.2706
lhand -10.9982 9.44838
lfingers 7.12502
lthumb 15.0222 38.8834
rfemur -16.4873 -1.28308 15.2118
rtibia 34.4733
rfoot -23.3797 -13.2346
rtoes 3.38274
lfemur -19.8847 -4.89616 -19.8125
ltibia 37.134
lfoot -23.5185 2.80817
ltoes 2.04295
172
root 1.45024 17.0893 33.6063 -170.269 -4.87457 178.411
lowerback 3.82649 -0.894672 -1.64814
upperback -1.75142 -1.24572 1.61952
thorax -3.88212 -0.564752 2.68633
lowerneck -18.9514 -1.08207 -2.55952
upperneck 22.3667 -1.39847 0.698124
head 10.3116 -0.962267 0.441536
rclavicle -1.2921e-015 -2.90226e-014
rhumerus -34.741 -4.25367 -82.7225
rradius 32.0658
rwrist 1.05004
rhand -18.6999 -11.8569
rfingers 7.12502
rthumb 7.59478 -41.7005
lclavicle -1.2921e-015 -2.90226e-014
lhumerus -32.0214 1.31185 91.1721
lradius 30.6615
lwrist -14.17
lhand -11.0156 9.43998
lfingers 7.12502
lthumb 15.0054 38.8763
rfemur -16.6381 -1.32335 15.1965
rtibia 34.4809
rfoot -23.4444 -13.2468
rtoes 3.26894
lfemur -20.0874 -4.91514 -19.8172
ltibia 37.205
lfoot -23.6067 2.80544
ltoes 2.08201
173
root 1.43916 17.0866 33.5839 -170.055 -4.922 178.42
lowerback 3.89448 -0.893985 -1.59331
upperback -1.72911 -1.24193 1.63348
thorax -3.89845 -0.564012 2.67084
lowerneck -18.9419 -1.10653 -2.60683
upperneck 22.2781 -1.41151 0.701439
head 10.2785 -0.968476 0.44945
rclavicle -4.37326e-015 -1.03368e-014
rhumerus -34.7511 -4.09625 -82.7665
rradius 32.2848
rwrist 0.906611
rhand -18.685 -11.8725
rfingers 7.12502
rthumb 7.60924 -41.7156
lclavicle -4.37326e-015 -1.03368e-014
lhumerus -32.0199 1.21409 91.2272
lradius 30.7946
lwrist -14.0789
lhand -11.0355 9.42873
lfingers 7.12502
lthumb 14.9863 38.8665
rfemur -16.7828 -1.37003 15.1815
rtibia 34.4929
rfoot -23.5111 -13.261
rtoes 3.13824
lfemur -20.2852 -4.9397 -19.8233
ltibia 37.2803
lfoot -23.6986 2.80421
ltoes 2.11711
174
root 1.42742 17.0836 33.5604 -169.842 -4.96323 178.432
lowerback 3.96939 -0.890112 -1.53722
upperback -1.71403 -1.23387 1.64949
thorax -3.92641 -0.561007 2.65676
lowerneck -18.9209 -1.13246 -2.65425
upperneck 22.1837 -1.42596 0.700126
head 10.2411 -0.975969 0.455594
rclavicle -1.28216e-014 2.3059e-014
rhumerus -34.7797 -3.9416 -82.7994
rradius 32.5142
rwrist 0.757523
rhand -18.6643 -11.8662
rfingers 7.12502
rthumb 7.6292 -41.7086
lclavicle -1.28216e-014 2.3059e-014
lhumerus -32.0339 1.12046 91.2843
lradius 30.9274
lwrist -13.9885
lhand -11.0613 9.4192
lfingers 7.12502
lthumb 14.9615 38.8588
rfemur -16.9269 -1.41923 15.1675
rtibia 34.5094
rfoot -23.5739 -13.2714
rtoes 2.98352
lfemur -20.4776 -4.96726 -19.83
ltibia 37.3578
lfoot -23.7908 2.81443
ltoes 2.13671
175
root 1.41502 17.0804 33.5354 -169.633 -5.00233 178.442
lowerback 4.03167 -0.884165 -1.48085
upperback -1.69099 -1.22286 1.66303
thorax -3.93919 -0.556818 2.63931
lowerneck -18.894 -1.16135 -2.69536
upperneck 22.0711 -1.4439 0.693095
head 10.1962 -0.98465 0.458315
rclavicle -1.55052e-014 3.18055e-015
rhumerus -34.8071 -3.80404 -82.824
rradius 32.7541
rwrist 0.606022
rhand -18.6421 -11.8635
rfingers 7.12502
rthumb 7.65062 -41.7051
lclavicle -1.55052e-014 3.18055e-015
lhumerus -32.0375 1.0217 91.3411
lradius 31.0557
lwrist -13.8898
lhand -11.0818 9.41172
lfingers 7.12502
lthumb 14.9417 38.8528
rfemur -17.0654 -1.47115 15.1497
rtibia 34.5308
rfoot -23.6343 -13.2822
rtoes 2.81179
lfemur -20.6593 -5.00075 -19.8422
ltibia 37.4349
lfoot -23.8826 2.83062
ltoes 2.16329
176
root 1.40197 17.0772 33.509 -169.429 -5.03952 178.449
lowerback 4.10212 -0.876198 -1.43027
upperback -1.67197 -1.20949 1.67671
thorax -3.96076 -0.551172 2.62533
lowerneck -18.8587 -1.19271 -2.72752
upperneck 21.9489 -1.46468 0.672782
head 10.1462 -0.995332 0.45454
rclavicle -6.36111e-015 8.74653e-015
rhumerus -34.8529 -3.6746 -82.8362
rradius 33.0131
rwrist 0.447218
rhand -18.6182 -11.8628
rfingers 7.12502
rthumb 7.67364 -41.7036
lclavicle -6.36111e-015 8.74653e-015
lhumerus -32.0487 0.9245 91.4
lradius 31.1791
lwrist -13.7957
lhand -11.0957 9.40675
lfingers 7.12502
lthumb 14.9283 38.8488
rfemur -17.1986 -1.52469 15.1265
rtibia 34.5591
rfoot -23.6926 -13.2966
rtoes 2.6242
lfemur -20.8298 -5.03745 -19.8621
ltibia 37.5103
lfoot -23.9708 2.85334
ltoes 2.17803
